<?xml version="1.0" encoding="UTF-8" standalone="no"?>
<!-- Created with Inkscape (http://www.inkscape.org/) -->

<svg
   xmlns:dc="http://purl.org/dc/elements/1.1/"
   xmlns:cc="http://creativecommons.org/ns#"
   xmlns:rdf="http://www.w3.org/1999/02/22-rdf-syntax-ns#"
   xmlns:svg="http://www.w3.org/2000/svg"
   xmlns="http://www.w3.org/2000/svg"
   xmlns:sodipodi="http://sodipodi.sourceforge.net/DTD/sodipodi-0.dtd"
   xmlns:inkscape="http://www.inkscape.org/namespaces/inkscape"
   width="54.984348mm"
   height="54.372974mm"
   viewBox="0 0 194.82643 192.66014"
   id="svg4251"
   version="1.1"
   inkscape:version="0.91 r13725"
   sodipodi:docname="logo.svg">
  <defs
     id="defs4253" />
  <sodipodi:namedview
     id="base"
     pagecolor="#ffffff"
     bordercolor="#666666"
     borderopacity="1.0"
     inkscape:pageopacity="0.0"
     inkscape:pageshadow="2"
     inkscape:zoom="0.35"
     inkscape:cx="152.4132"
     inkscape:cy="-117.95563"
     inkscape:document-units="px"
     inkscape:current-layer="layer1"
     showgrid="false"
     fit-margin-top="0"
     fit-margin-left="0"
     fit-margin-right="0"
     fit-margin-bottom="0"
     inkscape:window-width="1440"
     inkscape:window-height="805"
     inkscape:window-x="0"
     inkscape:window-y="1"
     inkscape:window-maximized="1" />
  <metadata
     id="metadata4256">
    <rdf:RDF>
      <cc:Work
         rdf:about="">
        <dc:format>image/svg+xml</dc:format>
        <dc:type
           rdf:resource="http://purl.org/dc/dcmitype/StillImage" />
        <dc:title></dc:title>
      </cc:Work>
    </rdf:RDF>
  </metadata>
  <g
     inkscape:label="Ebene 1"
     inkscape:groupmode="layer"
     id="layer1"
     transform="translate(-222.5868,-221.74642)">
    <path
       inkscape:connector-curvature="0"
       style="opacity:1;fill:#28a745;fill-opacity:1;fill-rule:nonzero;stroke:none;stroke-width:1.64150929;stroke-linejoin:round;stroke-miterlimit:4;stroke-dasharray:none;stroke-opacity:1"
       d="m 320.00083,221.74642 a 97.413261,97.413261 0 0 0 -97.41403,97.41406 97.413261,97.413261 0 0 0 40.24021,78.75 c 1.13424,-13.09924 11.06607,-22.25047 29.79687,-27.44922 -8.6263,-3.74349 -12.93945,-8.66602 -12.93945,-14.76953 0,-7.97526 6.51041,-13.4694 19.53125,-16.48047 l 0,-0.48828 c -8.87045,-2.4414 -15.95052,-6.79427 -21.24024,-13.06055 -5.20833,-6.26627 -7.8125,-13.59049 -7.8125,-21.97265 0,-12.28841 4.63867,-22.17709 13.91602,-29.66407 9.27734,-7.56836 21.40299,-11.35156 36.37695,-11.35156 l 58.71482,0 0,21.24024 -19.53122,0 c 3.17382,3.90625 5.37107,7.52669 6.59182,10.86328 1.302,3.2552 1.9531,6.79622 1.9531,10.62109 0,9.11458 -3.41798,17.45508 -10.25391,25.02344 -6.02214,6.5918 -16.35743,10.86523 -31.00586,12.81836 -7.89388,0.97656 -13.14193,2.11589 -15.74609,3.41797 -2.52279,1.2207 -3.78516,3.13216 -3.78516,5.73632 0,2.36003 1.54623,4.19207 4.63867,5.49415 3.17383,1.2207 8.2194,2.39974 15.13672,3.53906 17.17122,2.76692 29.78516,6.99869 37.8418,12.69531 8.13803,5.69661 12.20703,13.22527 12.20703,22.58398 0,0.39456 -0.019,0.77749 -0.029,1.16602 a 97.413261,97.413261 0 0 0 40.2246,-78.71289 97.413261,97.413261 0 0 0 -97.4121,-97.41406 z m -0.52148,61.43554 c -6.02214,0 -11.14909,2.07422 -15.38086,6.22461 -4.15039,4.06901 -6.22656,8.91211 -6.22656,14.52735 0,5.94075 2.07617,10.90495 6.22656,14.89258 4.23177,3.90625 9.35872,5.85937 15.38086,5.85937 6.18489,0 11.27018,-2.0345 15.25781,-6.10352 3.98763,-4.15038 5.98242,-9.35872 5.98242,-15.625 0,-5.61523 -2.07617,-10.29557 -6.22656,-14.03906 -4.15039,-3.82487 -9.1543,-5.73633 -15.01367,-5.73633 z M 316.9149,383.889 c -7.73112,0 -14.03711,1.42513 -18.91993,4.27343 -4.88281,2.92969 -7.32421,6.5918 -7.32422,10.98633 0,10.17253 10.17253,15.25781 30.51758,15.25781 8.78907,0 15.66472,-1.42317 20.62891,-4.27148 5.04557,-2.76693 7.56836,-6.42904 7.56836,-10.98633 0,-5.04557 -2.84831,-8.87044 -8.54492,-11.47461 -5.61524,-2.52278 -13.5905,-3.78515 -23.92578,-3.78515 z"
       id="circle4190" />
  </g>
</svg>
